Coordinates
version=1
nRows=10
nColumns=23
inDegrees=yes

Units are S.I. units (second, meters, Newtons, ...)
If the header above contains a line with 'inDegrees', this indicates whether rotational values are in degrees (yes) or radians (no).

endheader
time	pelvis_tilt	pelvis_list	pelvis_rotation	pelvis_tx	pelvis_ty	pelvis_tz	hip_flexion_r	hip_adduction_r	hip_rotation_r	knee_angle_r	knee_angle_r_beta	ankle_angle_r	subtalar_angle_r	mtp_angle_r	hip_flexion_l	hip_adduction_l	hip_rotation_l	knee_angle_l	knee_angle_l_beta	ankle_angle_l	subtalar_angle_l	mtp_angle_l
     15.00000000	     -5.92742597	      9.31407228	      4.42301627	      2.13377612	      0.96513574	      1.03663024	     30.52866682	    -13.25557448	      2.71037942	     97.12803593	      1.69520402	     -2.67068145	    -11.80245712	      0.00000000	     19.15133640	     12.24032356	     -5.00056626	     40.01770794	      0.69844076	     24.71578193	     -6.88383655	      0.00000000
     15.00666667	     -6.28498382	      8.94073166	      4.04647984	      2.13314799	      0.96630027	      1.03703904	     32.95769704	    -12.27057197	      3.66114021	     96.71739092	      1.68803692	     -1.93146135	    -10.59395617	      0.00000000	     17.47145510	     11.77734386	     -4.87752592	     38.94006731	      0.67963239	     25.47203104	     -6.45482436	      0.00000000
     15.01333333	     -6.86893400	      8.35630607	      4.13044157	      2.13308009	      0.96792933	      1.03680467	     35.22808049	    -11.38424781	      3.94965597	     95.81315717	      1.67225506	     -1.57583277	    -10.13328295	      0.00000000	     15.87099816	     11.27855886	     -4.21364873	     37.63252033	      0.65681139	     25.89738476	     -5.95306097	      0.00000000
     15.02000000	     -7.17037468	      7.83940534	      3.92089878	      2.13349004	      0.97030238	      1.03692379	     37.08371738	    -10.49099869	      4.29103169	     94.59223606	      1.65094597	     -0.86282584	     -9.13751352	      0.00000000	     13.82955465	     10.67200487	     -4.04635250	     35.99108387	      0.62816291	     25.86987106	     -5.26044355	      0.00000000
     15.02666667	     -7.18746423	      7.01765158	      3.93449787	      2.13446894	      0.97369956	      1.03676221	     38.24852128	     -9.50672300	      4.04460501	     92.86167601	      1.62074200	     -0.32178695	     -8.64902748	      0.00000000	     11.40070192	      9.77857247	     -3.59333382	     34.20111154	      0.59692200	     25.59013807	     -4.48434609	      0.00000000
     15.03333333	     -7.47541616	      6.31405384	      3.81132860	      2.13554568	      0.97689331	      1.03681414	     39.65559026	     -8.60374437	      3.91738121	     90.93251361	      1.58707176	      0.25963120	     -8.20999197	      0.00000000	      9.25602165	      8.99114859	     -3.34980274	     32.28558220	      0.56348971	     24.80925786	     -3.88313983	      0.00000000
     15.04000000	     -7.31156887	      5.33490936	      3.87109216	      2.13729610	      0.98126532	      1.03669323	     40.19132298	     -7.63762019	      3.24824782	     88.50288555	      1.54466675	      0.81083193	     -7.99946473	      0.00000000	      6.54696833	      7.88176878	     -2.94891187	     30.17815708	      0.52670820	     23.63455291	     -3.27259132	      0.00000000
     15.04666667	     -7.39931226	      4.55485405	      3.74467851	      2.13904385	      0.98531207	      1.03682965	     40.98139092	     -6.77105625	      2.82413596	     85.93857334	      1.49991106	      1.42085214	     -7.77239889	      0.00000000	      4.14088410	      6.97340503	     -2.84045914	     28.00505553	      0.48878043	     21.98455123	     -2.75630042	      0.00000000
     15.05333333	     -7.38104424	      3.65329201	      3.73608834	      2.14112717	      0.98974555	      1.03683126	     41.41137250	     -5.94170971	      2.09797651	     83.03010685	      1.44914874	      1.94934965	     -7.62877345	      0.00000000	      1.64915746	      5.93317377	     -2.66411156	     25.79902325	      0.45027790	     19.86205180	     -2.41879243	      0.00000000
     15.06000000	     -7.49261625	      2.90936001	      3.61683117	      2.14325410	      0.99397195	      1.03703073	     41.90585631	     -5.20306784	      1.52576646	     79.95711698	      1.39551495	      2.51887619	     -7.47568522	      0.00000000	     -0.66057254	      5.06995161	     -2.67458828	     23.57106096	      0.41139262	     17.31475705	     -2.17256160	      0.00000000
